<svg fill="#f0652f" width="50px" height="50px" viewBox="0 0 24.00 24.00" xmlns="http://www.w3.org/2000/svg" stroke="#f0652f" stroke-width="0.00024000000000000003"><g id="SVGRepo_bgCarrier" stroke-width="0"></g><g id="SVGRepo_tracerCarrier" stroke-linecap="round" stroke-linejoin="round" stroke="#ffffff" stroke-width="4.8"><path d="m0 0h24v24h-24zm12.8 13.446 4.339-8.303h-1.871q-2.143 4.018-2.839 5.786l-.375.96-.32-.75c-.96-2.374-1.931-4.348-3.022-6.243l.129.243h-1.984l4.286 8.2v5.52h1.657z"></path></g><g id="SVGRepo_iconCarrier"><path d="m0 0h24v24h-24zm12.8 13.446 4.339-8.303h-1.871q-2.143 4.018-2.839 5.786l-.375.96-.32-.75c-.96-2.374-1.931-4.348-3.022-6.243l.129.243h-1.984l4.286 8.2v5.52h1.657z"></path></g></svg>